<svg id="visual" viewBox="0 0 960 200" width="960" height="200" xmlns="http://www.w3.org/2000/svg" xmlns:xlink="http://www.w3.org/1999/xlink" version="1.1"><path d="M0 21L14.5 22C29 23 58 25 87.2 24.3C116.3 23.7 145.7 20.3 174.8 20C204 19.7 233 22.3 262 22.3C291 22.3 320 19.7 349 19C378 18.3 407 19.7 436.2 22.7C465.3 25.7 494.7 30.3 523.8 29.7C553 29 582 23 611 20C640 17 669 17 698 18.7C727 20.3 756 23.7 785.2 26C814.3 28.3 843.7 29.7 872.8 27.3C902 25 931 19 945.5 16L960 13L960 0L945.5 0C931 0 902 0 872.8 0C843.7 0 814.3 0 785.2 0C756 0 727 0 698 0C669 0 640 0 611 0C582 0 553 0 523.8 0C494.7 0 465.3 0 436.2 0C407 0 378 0 349 0C320 0 291 0 262 0C233 0 204 0 174.8 0C145.7 0 116.3 0 87.2 0C58 0 29 0 14.5 0L0 0Z" fill="#eb7990"></path><path d="M0 59L14.5 63C29 67 58 75 87.2 76C116.3 77 145.7 71 174.8 70.3C204 69.7 233 74.3 262 72C291 69.7 320 60.3 349 54.7C378 49 407 47 436.2 49.7C465.3 52.3 494.7 59.7 523.8 59C553 58.3 582 49.7 611 47C640 44.3 669 47.7 698 54C727 60.3 756 69.7 785.2 70.3C814.3 71 843.7 63 872.8 60.7C902 58.3 931 61.7 945.5 63.3L960 65L960 11L945.5 14C931 17 902 23 872.8 25.3C843.7 27.7 814.3 26.3 785.2 24C756 21.7 727 18.3 698 16.7C669 15 640 15 611 18C582 21 553 27 523.8 27.7C494.7 28.3 465.3 23.7 436.2 20.7C407 17.7 378 16.3 349 17C320 17.7 291 20.3 262 20.3C233 20.3 204 17.7 174.8 18C145.7 18.3 116.3 21.7 87.2 22.3C58 23 29 21 14.5 20L0 19Z" fill="#e25976"></path><path d="M0 73L14.5 77.3C29 81.7 58 90.3 87.2 92.7C116.3 95 145.7 91 174.8 91.3C204 91.7 233 96.3 262 97C291 97.7 320 94.3 349 91.7C378 89 407 87 436.2 89C465.3 91 494.7 97 523.8 96C553 95 582 87 611 83C640 79 669 79 698 84C727 89 756 99 785.2 98C814.3 97 843.7 85 872.8 83.7C902 82.3 931 91.7 945.5 96.3L960 101L960 63L945.5 61.3C931 59.7 902 56.3 872.8 58.7C843.7 61 814.3 69 785.2 68.3C756 67.7 727 58.3 698 52C669 45.7 640 42.3 611 45C582 47.7 553 56.3 523.8 57C494.7 57.7 465.3 50.3 436.2 47.7C407 45 378 47 349 52.7C320 58.3 291 67.7 262 70C233 72.3 204 67.7 174.8 68.3C145.7 69 116.3 75 87.2 74C58 73 29 65 14.5 61L0 57Z" fill="#d8315b"></path><path d="M0 139L14.5 137C29 135 58 131 87.2 129C116.3 127 145.7 127 174.8 134.7C204 142.3 233 157.7 262 159.7C291 161.7 320 150.3 349 144.3C378 138.3 407 137.7 436.2 137.7C465.3 137.7 494.7 138.3 523.8 138.3C553 138.3 582 137.7 611 141C640 144.3 669 151.7 698 154.3C727 157 756 155 785.2 151.7C814.3 148.3 843.7 143.7 872.8 143.7C902 143.7 931 148.3 945.5 150.7L960 153L960 99L945.5 94.3C931 89.7 902 80.3 872.8 81.7C843.7 83 814.3 95 785.2 96C756 97 727 87 698 82C669 77 640 77 611 81C582 85 553 93 523.8 94C494.7 95 465.3 89 436.2 87C407 85 378 87 349 89.7C320 92.3 291 95.7 262 95C233 94.3 204 89.7 174.8 89.3C145.7 89 116.3 93 87.2 90.7C58 88.3 29 79.7 14.5 75.3L0 71Z" fill="#bb2a4f"></path><path d="M0 201L14.5 201C29 201 58 201 87.2 201C116.3 201 145.7 201 174.8 201C204 201 233 201 262 201C291 201 320 201 349 201C378 201 407 201 436.2 201C465.3 201 494.7 201 523.8 201C553 201 582 201 611 201C640 201 669 201 698 201C727 201 756 201 785.2 201C814.3 201 843.7 201 872.8 201C902 201 931 201 945.5 201L960 201L960 151L945.5 148.7C931 146.3 902 141.7 872.8 141.7C843.7 141.7 814.3 146.3 785.2 149.7C756 153 727 155 698 152.3C669 149.7 640 142.3 611 139C582 135.7 553 136.3 523.8 136.3C494.7 136.3 465.3 135.7 436.2 135.7C407 135.7 378 136.3 349 142.3C320 148.3 291 159.7 262 157.7C233 155.7 204 140.3 174.8 132.7C145.7 125 116.3 125 87.2 127C58 129 29 133 14.5 135L0 137Z" fill="#9f2443"></path></svg>