<svg id="visual" viewBox="0 0 540 960" width="540" height="960" xmlns="http://www.w3.org/2000/svg" xmlns:xlink="http://www.w3.org/1999/xlink" version="1.1"><path d="M0 107L8.2 110.2C16.3 113.3 32.7 119.7 49 118C65.3 116.3 81.7 106.7 98 101.8C114.3 97 130.7 97 147 95.3C163.3 93.7 179.7 90.3 196 82.3C212.3 74.3 228.7 61.7 245.2 66.5C261.7 71.3 278.3 93.7 294.8 104.8C311.3 116 327.7 116 344 112.8C360.3 109.7 376.7 103.3 393 103.3C409.3 103.3 425.7 109.7 442 111.3C458.3 113 474.7 110 491 105.2C507.3 100.3 523.7 93.7 531.8 90.3L540 87L540 0L531.8 0C523.7 0 507.3 0 491 0C474.7 0 458.3 0 442 0C425.7 0 409.3 0 393 0C376.7 0 360.3 0 344 0C327.7 0 311.3 0 294.8 0C278.3 0 261.7 0 245.2 0C228.7 0 212.3 0 196 0C179.7 0 163.3 0 147 0C130.7 0 114.3 0 98 0C81.7 0 65.3 0 49 0C32.7 0 16.3 0 8.2 0L0 0Z" fill="#eb7990"></path><path d="M0 183L8.2 191C16.3 199 32.7 215 49 218.3C65.3 221.7 81.7 212.3 98 202.8C114.3 193.3 130.7 183.7 147 178.8C163.3 174 179.7 174 196 170.8C212.3 167.7 228.7 161.3 245.2 167.7C261.7 174 278.3 193 294.8 197.7C311.3 202.3 327.7 192.7 344 186.3C360.3 180 376.7 177 393 175.5C409.3 174 425.7 174 442 170.8C458.3 167.7 474.7 161.3 491 162.8C507.3 164.3 523.7 173.7 531.8 178.3L540 183L540 85L531.8 88.3C523.7 91.7 507.3 98.3 491 103.2C474.7 108 458.3 111 442 109.3C425.7 107.7 409.3 101.3 393 101.3C376.7 101.3 360.3 107.7 344 110.8C327.7 114 311.3 114 294.8 102.8C278.3 91.7 261.7 69.3 245.2 64.5C228.7 59.7 212.3 72.3 196 80.3C179.7 88.3 163.3 91.7 147 93.3C130.7 95 114.3 95 98 99.8C81.7 104.7 65.3 114.3 49 116C32.7 117.7 16.3 111.3 8.2 108.2L0 105Z" fill="#e5647e"></path><path d="M0 491L8.2 484.5C16.3 478 32.7 465 49 458.5C65.3 452 81.7 452 98 431.2C114.3 410.3 130.7 368.7 147 339.8C163.3 311 179.7 295 196 295C212.3 295 228.7 311 245.2 336.7C261.7 362.3 278.3 397.7 294.8 428.2C311.3 458.7 327.7 484.3 344 460.3C360.3 436.3 376.7 362.7 393 346.7C409.3 330.7 425.7 372.3 442 372.3C458.3 372.3 474.7 330.7 491 319.5C507.3 308.3 523.7 327.7 531.8 337.3L540 347L540 181L531.8 176.3C523.7 171.7 507.3 162.3 491 160.8C474.7 159.3 458.3 165.7 442 168.8C425.7 172 409.3 172 393 173.5C376.7 175 360.3 178 344 184.3C327.7 190.7 311.3 200.3 294.8 195.7C278.3 191 261.7 172 245.2 165.7C228.7 159.3 212.3 165.7 196 168.8C179.7 172 163.3 172 147 176.8C130.7 181.7 114.3 191.3 98 200.8C81.7 210.3 65.3 219.7 49 216.3C32.7 213 16.3 197 8.2 189L0 181Z" fill="#df4d6d"></path><path d="M0 625L8.2 629.8C16.3 634.7 32.7 644.3 49 636.3C65.3 628.3 81.7 602.7 98 596.2C114.3 589.7 130.7 602.3 147 605.5C163.3 608.7 179.7 602.3 196 608.8C212.3 615.3 228.7 634.7 245.2 634.7C261.7 634.7 278.3 615.3 294.8 620.2C311.3 625 327.7 654 344 654C360.3 654 376.7 625 393 620.2C409.3 615.3 425.7 634.7 442 644.3C458.3 654 474.7 654 491 633.2C507.3 612.3 523.7 570.7 531.8 549.8L540 529L540 345L531.8 335.3C523.7 325.7 507.3 306.3 491 317.5C474.7 328.7 458.3 370.3 442 370.3C425.7 370.3 409.3 328.7 393 344.7C376.7 360.7 360.3 434.3 344 458.3C327.7 482.3 311.3 456.7 294.8 426.2C278.3 395.7 261.7 360.3 245.2 334.7C228.7 309 212.3 293 196 293C179.7 293 163.3 309 147 337.8C130.7 366.7 114.3 408.3 98 429.2C81.7 450 65.3 450 49 456.5C32.7 463 16.3 476 8.2 482.5L0 489Z" fill="#d8315b"></path><path d="M0 779L8.2 777.3C16.3 775.7 32.7 772.3 49 759.5C65.3 746.7 81.7 724.3 98 724.3C114.3 724.3 130.7 746.7 147 761C163.3 775.3 179.7 781.7 196 789.7C212.3 797.7 228.7 807.3 245.2 799.3C261.7 791.3 278.3 765.7 294.8 762.5C311.3 759.3 327.7 778.7 344 785.2C360.3 791.7 376.7 785.3 393 772.5C409.3 759.7 425.7 740.3 442 737C458.3 733.7 474.7 746.3 491 744.7C507.3 743 523.7 727 531.8 719L540 711L540 527L531.8 547.8C523.7 568.7 507.3 610.3 491 631.2C474.7 652 458.3 652 442 642.3C425.7 632.7 409.3 613.3 393 618.2C376.7 623 360.3 652 344 652C327.7 652 311.3 623 294.8 618.2C278.3 613.3 261.7 632.7 245.2 632.7C228.7 632.7 212.3 613.3 196 606.8C179.7 600.3 163.3 606.7 147 603.5C130.7 600.3 114.3 587.7 98 594.2C81.7 600.7 65.3 626.3 49 634.3C32.7 642.3 16.3 632.7 8.2 627.8L0 623Z" fill="#c52d53"></path><path d="M0 817L8.2 826.7C16.3 836.3 32.7 855.7 49 854C65.3 852.3 81.7 829.7 98 821.7C114.3 813.7 130.7 820.3 147 828.3C163.3 836.3 179.7 845.7 196 856.8C212.3 868 228.7 881 245.2 877.8C261.7 874.7 278.3 855.3 294.8 847.3C311.3 839.3 327.7 842.7 344 849.2C360.3 855.7 376.7 865.3 393 863.7C409.3 862 425.7 849 442 847.3C458.3 845.7 474.7 855.3 491 849C507.3 842.7 523.7 820.3 531.8 809.2L540 798L540 709L531.8 717C523.7 725 507.3 741 491 742.7C474.7 744.3 458.3 731.7 442 735C425.7 738.3 409.3 757.7 393 770.5C376.7 783.3 360.3 789.7 344 783.2C327.7 776.7 311.3 757.3 294.8 760.5C278.3 763.7 261.7 789.3 245.2 797.3C228.7 805.3 212.3 795.7 196 787.7C179.7 779.7 163.3 773.3 147 759C130.7 744.7 114.3 722.3 98 722.3C81.7 722.3 65.3 744.7 49 757.5C32.7 770.3 16.3 773.7 8.2 775.3L0 777Z" fill="#b2284b"></path><path d="M0 961L8.2 961C16.3 961 32.7 961 49 961C65.3 961 81.7 961 98 961C114.3 961 130.7 961 147 961C163.3 961 179.7 961 196 961C212.3 961 228.7 961 245.2 961C261.7 961 278.3 961 294.8 961C311.3 961 327.7 961 344 961C360.3 961 376.7 961 393 961C409.3 961 425.7 961 442 961C458.3 961 474.7 961 491 961C507.3 961 523.7 961 531.8 961L540 961L540 796L531.8 807.2C523.7 818.3 507.3 840.7 491 847C474.7 853.3 458.3 843.7 442 845.3C425.7 847 409.3 860 393 861.7C376.7 863.3 360.3 853.7 344 847.2C327.7 840.7 311.3 837.3 294.8 845.3C278.3 853.3 261.7 872.7 245.2 875.8C228.7 879 212.3 866 196 854.8C179.7 843.7 163.3 834.3 147 826.3C130.7 818.3 114.3 811.7 98 819.7C81.7 827.7 65.3 850.3 49 852C32.7 853.7 16.3 834.3 8.2 824.7L0 815Z" fill="#9f2443"></path></svg>